<svg width="512" height="512" viewBox="0 0 512 512" fill="none" xmlns="http://www.w3.org/2000/svg">
<path fill-rule="evenodd" clip-rule="evenodd" d="M27.4986 58.944C28.8378 54.9191 31.7205 51.5908 35.5128 49.6906C39.3052 47.7904 43.697 47.4739 47.7226 48.8107L53.376 50.7093L54.2293 50.9867C67.584 55.4453 78.8693 59.2 87.7653 63.3387C97.1946 67.7333 105.387 73.152 111.595 81.792C117.803 90.3893 120.384 99.8827 121.557 110.229C122.667 119.957 122.667 131.861 122.667 145.941V202.667C122.667 233.28 122.709 254.656 124.864 270.763C126.976 286.421 130.837 294.699 136.725 300.608C142.635 306.517 150.933 310.357 166.592 312.469C182.699 314.624 204.053 314.667 234.667 314.667H384C388.243 314.667 392.313 316.352 395.314 319.353C398.314 322.354 400 326.423 400 330.667C400 334.91 398.314 338.98 395.314 341.98C392.313 344.981 388.243 346.667 384 346.667H233.493C204.331 346.667 180.8 346.667 162.304 344.192C143.104 341.589 126.933 336.085 114.091 323.243C101.248 310.4 95.744 294.229 93.1626 275.029C90.6666 256.533 90.6666 233.003 90.6666 203.84V146.837C90.6666 131.627 90.6666 121.557 89.7706 113.856C88.9173 106.56 87.488 103.061 85.632 100.501C83.7973 97.9413 80.9173 95.4453 74.2613 92.352C67.2213 89.088 57.6853 85.8667 43.264 81.0453L37.6106 79.1893C35.6148 78.5243 33.7696 77.4722 32.1808 76.0933C30.592 74.7143 29.2908 73.0356 28.3515 71.1531C27.4123 69.2707 26.8535 67.2215 26.7072 65.1228C26.5608 63.0242 26.8298 60.9386 27.4986 58.944Z" fill="#0B60B0"/>
<path opacity="0.5" d="M122.56 128C122.645 133.547 122.681 139.527 122.667 145.941V202.667C122.667 233.28 122.709 254.656 124.864 270.763C125.191 273.109 125.547 275.3 125.931 277.333H341.824C362.283 277.333 372.501 277.333 380.523 272.043C388.544 266.752 392.576 257.365 400.619 238.549L409.792 217.216C427.051 176.896 435.669 156.757 426.197 142.379C416.725 128 394.795 128 350.933 128H122.56Z" fill="#0B60B0"/>
<path d="M154.667 192C154.667 187.757 156.352 183.687 159.353 180.686C162.354 177.686 166.423 176 170.667 176H234.667C238.91 176 242.98 177.686 245.98 180.686C248.981 183.687 250.667 187.757 250.667 192C250.667 196.243 248.981 200.313 245.98 203.314C242.98 206.314 238.91 208 234.667 208H170.667C166.423 208 162.354 206.314 159.353 203.314C156.352 200.313 154.667 196.243 154.667 192ZM160 384C168.487 384 176.626 387.371 182.627 393.373C188.629 399.374 192 407.513 192 416C192 424.487 188.629 432.626 182.627 438.627C176.626 444.629 168.487 448 160 448C151.513 448 143.374 444.629 137.373 438.627C131.371 432.626 128 424.487 128 416C128 407.513 131.371 399.374 137.373 393.373C143.374 387.371 151.513 384 160 384ZM384 416C384 407.513 380.629 399.374 374.627 393.373C368.626 387.371 360.487 384 352 384C343.513 384 335.374 387.371 329.373 393.373C323.371 399.374 320 407.513 320 416C320 424.487 323.371 432.626 329.373 438.627C335.374 444.629 343.513 448 352 448C360.487 448 368.626 444.629 374.627 438.627C380.629 432.626 384 424.487 384 416Z" fill="#0B60B0"/>
</svg>
